<?xml version="1.0" encoding="UTF-8"?>
<svg id="cdr_layer2" xmlns="http://www.w3.org/2000/svg" viewBox="0 0 291.16 185.91">
  <defs>
    <style>
      .cls-1 {
        fill-rule: evenodd;
      }

      .cls-1, .cls-2 {
        fill: #6a56ea;
      }
    </style>
  </defs>
  <g>
    <g>
      <path class="cls-2" d="M81.47,159.88h5.54l-2.84,6.3h1.51v19.66h-5.29v-15.8h-3.53l4.61-10.15ZM86.87,160.89h7.49l-.43-1.01h5.62l.43,1.01h8.53v2.99h-21.64v-2.99ZM93.13,182.74h.76c.34,0,.62-.11.85-.32.23-.22.34-.48.34-.79v-.94h-7.06v-1.55h-1.15v-5.58h18.68c.96,0,1.69.29,2.2.86s.76,1.34.76,2.3v2.41h-1.15v1.55h-6.91v1.22c0,1.1-.42,2.03-1.26,2.79-.84.76-1.84,1.13-2.99,1.13h-4.54l1.48-3.1ZM87.37,164.99h20.63v4.54c0,1.03-.37,1.78-1.12,2.25-.74.47-1.73.7-2.95.7h-16.56v-7.49ZM103.36,177.7v-.32c0-.22-.08-.4-.25-.56-.17-.16-.36-.23-.58-.23h-10.51v1.12h11.34ZM101.81,169.85c.31,0,.56-.09.76-.27.19-.18.29-.43.29-.74v-1.22h-10.33v2.23h9.29Z"/>
      <path class="cls-2" d="M112.54,182.31h3.1v-17.78h4.93v17.78h6.12v-22.39h4.93v7.27h12.24v3.49h-12.24v11.63h12.24v3.49h-31.32v-3.49Z"/>
      <path class="cls-2" d="M147.85,183.24h13.9v-.83h-12.02v-2.66h12.02v-.76h-12.28v-11.23h12.28v-1.04h-13.82v-2.63h13.82v-.9l-12.6.18v-3.13l29.3-.43v3.17l-11.84.14v.97h12.92v2.63h-12.92v1.04h12.17v7.31c0,1.13-.38,2.06-1.15,2.81-.77.74-1.7,1.12-2.81,1.12h-8.21v.76h11.02v2.66h-11.02v.83h12.89v2.66h-31.64v-2.66ZM161.75,171.9v-1.48h-8.24v1.48h8.24ZM161.75,176.19v-1.66h-8.24v1.66h8.24ZM174.75,171.9v-1.48h-8.14v1.48h8.14ZM173.59,176.19c.33,0,.61-.11.83-.32.22-.22.32-.48.32-.79v-.54h-8.14v1.66h6.98Z"/>
      <path class="cls-2" d="M183.39,162.26h4.18v-2.41h5.04v2.41h4.14v3.56h-4.14v20.05h-5.04v-20.05h-4.18v-3.56ZM184.39,167.55h2.95l-.83,18.32h-2.92l.79-18.32ZM195.73,167.55l.79,18.32h-2.92l-.79-18.32h2.92ZM201.57,167.55h4.64l-3.31,8.96h2.63l-.5-2.7h4.21l1.26,7.13h-4.18l-.18-.86h-9.22l4.64-12.53ZM207.47,182.27h2.2c.31,0,.58-.11.79-.32.22-.22.32-.48.32-.79v-15.12h-13.1l2.27-6.16h5.44l-.68,2.59h10.3v19.4c0,1.13-.38,2.07-1.15,2.83-.77.76-1.71,1.13-2.81,1.13h-5.15l1.58-3.56Z"/>
    </g>
    <rect class="cls-2" x="221.99" y="172.21" width="69.17" height="2.47"/>
    <rect class="cls-2" x=".22" y="172.21" width="69.55" height="2.47"/>
  </g>
  <g>
    <polygon class="cls-1" points="89.32 14.13 125.38 14.13 125.38 21.54 96.73 21.54 96.73 98.65 89.32 98.65 89.32 14.13"/>
    <polygon class="cls-1" points="195.7 91.65 159.64 91.65 159.64 84.24 188.29 84.24 188.29 7.41 195.7 7.41 195.7 91.65"/>
    <polygon class="cls-1" points="103.45 106.06 103.45 70 110.86 70 110.86 98.65 188.29 98.65 188.29 106.06 103.45 106.06"/>
    <polygon class="cls-1" points="181.22 0 181.22 36.06 173.81 36.06 173.81 7.41 96.73 7.41 96.73 0 181.22 0"/>
    <path class="cls-1" d="M143.89,24.41c1.85,5.41,2.42,11.28-3.53,13.67-10.27,4.12-16.29-8.16-11.65-15.39,4.99-7.56,15.53-8.06,24.46-3.76,10.58,5.1,19.77,15.92,18.75,25.06-.16,1.4-1.68,2.7-2.21,1.65-6.05-12.16-13.26-19.87-25.83-21.23Z"/>
    <path class="cls-1" d="M141.03,82.3c-1.85-5.41-2.42-11.28,3.53-13.67,10.27-4.12,16.29,8.16,11.64,15.38-4.99,7.56-15.53,8.06-24.46,3.76-10.58-5.1-19.77-15.92-18.75-25.06.16-1.4,1.68-2.7,2.21-1.65,6.05,12.16,13.26,19.87,25.82,21.23Z"/>
  </g>
  <g>
    <path class="cls-2" d="M4.97,124.7v19.31c0,.31.11.58.34.82s.5.36.83.36h8.45v3.27H5.18c-.92,0-1.78-.23-2.57-.69-.79-.46-1.43-1.09-1.9-1.88-.47-.79-.71-1.67-.71-2.64v-18.53h4.97Z"/>
    <path class="cls-2" d="M18.5,124.49h4.93v4.33h-4.93v-4.33ZM18.5,130.88h4.93v17.46h-4.93v-17.46Z"/>
    <path class="cls-2" d="M29.84,132.02c.72-.76,1.63-1.13,2.72-1.13h5.61c.64,0,1.18.23,1.63.69.45.46.67,1.02.67,1.69,0-.66.23-1.22.69-1.69.46-.46,1.02-.69,1.69-.69h5.57c1.06,0,1.97.37,2.72,1.12.75.75,1.12,1.65,1.12,2.72v13.63h-4.97v-12.96c0-.33-.11-.62-.34-.85-.23-.24-.51-.36-.87-.36h-1.92c-.33,0-.62.12-.85.36-.24.24-.35.52-.35.85v12.96h-4.93v-12.96c0-.33-.12-.62-.35-.85-.24-.24-.52-.36-.85-.36h-1.92c-.33,0-.61.12-.83.36s-.34.52-.34.85v12.96h-4.97v-13.63c0-1.04.36-1.94,1.08-2.7Z"/>
    <path class="cls-2" d="M57.58,124.49h4.93v4.33h-4.93v-4.33ZM57.58,130.88h4.93v17.46h-4.93v-17.46Z"/>
    <path class="cls-2" d="M76.04,144.71c.24.23.52.34.85.34h3.98v3.27h-4.9c-.97,0-1.86-.24-2.66-.73-.81-.49-1.44-1.12-1.9-1.92s-.69-1.64-.69-2.54v-8.95h-3.59v-3.27h3.59v-6.39h4.97v6.39h5.18v3.27h-5.18v9.66c0,.36.12.64.35.87Z"/>
    <path class="cls-2" d="M109.37,127.79h-3.37c-.33,0-.62.11-.85.34-.24.22-.35.5-.35.83v2.09h5.29v3.27h-5.29v14.02h-4.97v-14.02h-3.34v-3.27h3.34v-1.35c0-.9.23-1.75.69-2.56.46-.8,1.09-1.45,1.88-1.93.79-.49,1.69-.73,2.68-.73h4.3v3.3Z"/>
    <path class="cls-2" d="M113.97,133.53c.46-.79,1.09-1.42,1.88-1.88s1.66-.69,2.61-.69h6.75c.97,0,1.85.24,2.64.71.79.47,1.42,1.11,1.88,1.9.46.79.69,1.65.69,2.57v6.99c0,.92-.24,1.78-.71,2.57-.47.79-1.11,1.43-1.92,1.9-.8.47-1.67.71-2.59.71h-6.75c-.92,0-1.78-.24-2.57-.71-.79-.47-1.43-1.11-1.9-1.9-.47-.79-.71-1.65-.71-2.57v-6.99c0-.95.23-1.82.69-2.61ZM118.57,144.71c.24.23.52.34.85.34h4.83c.35,0,.64-.11.87-.34.22-.22.34-.51.34-.87v-8.41c0-.33-.11-.62-.34-.85-.23-.24-.51-.36-.87-.36h-4.83c-.33,0-.62.12-.85.36-.24.24-.35.52-.35.85v8.41c0,.36.12.64.35.87Z"/>
    <path class="cls-2" d="M148.88,134.18h-7.7c-.33,0-.61.12-.83.36s-.34.52-.34.85v12.96h-4.97v-12.21c0-.92.23-1.79.69-2.59s1.09-1.45,1.9-1.94c.8-.48,1.68-.73,2.63-.73h8.63v3.3Z"/>
    <path class="cls-2" d="M165.21,124.49h4.93v4.33h-4.93v-4.33ZM165.21,130.88h4.93v17.46h-4.93v-17.46Z"/>
    <path class="cls-2" d="M189.73,131.59c.82.47,1.46,1.11,1.93,1.92s.71,1.68.71,2.63v12.21h-4.97v-12.96c0-.33-.12-.62-.36-.85s-.52-.36-.85-.36h-4.58c-.33,0-.61.12-.83.36s-.34.52-.34.85v12.96h-4.97v-12.21c0-.95.24-1.82.71-2.63.47-.8,1.11-1.44,1.9-1.92.79-.47,1.65-.71,2.57-.71h6.46c.92,0,1.79.24,2.61.71Z"/>
    <path class="cls-2" d="M209.87,127.79h-3.37c-.33,0-.62.11-.85.34s-.35.5-.35.83v2.09h5.29v3.27h-5.29v14.02h-4.97v-14.02h-3.34v-3.27h3.34v-1.35c0-.9.23-1.75.69-2.56.46-.8,1.09-1.45,1.88-1.93.79-.49,1.69-.73,2.68-.73h4.29v3.3Z"/>
    <path class="cls-2" d="M214.49,124.49h4.93v4.33h-4.93v-4.33ZM214.49,130.88h4.93v17.46h-4.93v-17.46Z"/>
    <path class="cls-2" d="M239,131.59c.82.47,1.46,1.11,1.93,1.92s.71,1.68.71,2.63v12.21h-4.97v-12.96c0-.33-.12-.62-.36-.85s-.52-.36-.85-.36h-4.58c-.33,0-.61.12-.83.36s-.34.52-.34.85v12.96h-4.97v-12.21c0-.95.24-1.82.71-2.63.47-.8,1.11-1.44,1.9-1.92.79-.47,1.65-.71,2.57-.71h6.46c.92,0,1.79.24,2.61.71Z"/>
    <path class="cls-2" d="M246.97,124.49h4.93v4.33h-4.93v-4.33ZM246.97,130.88h4.93v17.46h-4.93v-17.46Z"/>
    <path class="cls-2" d="M265.43,144.71c.24.23.52.34.85.34h3.98v3.27h-4.9c-.97,0-1.86-.24-2.66-.73-.8-.49-1.44-1.12-1.9-1.92s-.69-1.64-.69-2.54v-8.95h-3.58v-3.27h3.58v-6.39h4.97v6.39h5.18v3.27h-5.18v9.66c0,.36.12.64.36.87Z"/>
    <path class="cls-2" d="M278.9,144.71c.22.23.5.34.83.34h5.61v-14.16h4.97v18.64c0,.92-.24,1.78-.71,2.57-.47.79-1.11,1.42-1.9,1.88-.79.46-1.66.69-2.61.69h-11.64v-3.27h10.72c.33,0,.61-.11.83-.34.22-.23.34-.49.34-.8v-1.95h-6.53c-.95,0-1.82-.23-2.63-.69-.81-.46-1.44-1.09-1.9-1.88-.46-.79-.69-1.66-.69-2.61l-.04-12.25h4.97l.04,12.99c0,.33.11.61.34.83Z"/>
  </g>
</svg>